# xmcd
#
# Track frame offsets: 
#        150
#        13704
#        30618
#        63390
#        97964
#        112407
#        141157
#        155833
#        184059
#        193201
#        208847
#        237457
#        252687
#        275427
#        292630
#        313057
#        323090
#
# Disc length: 4668 seconds
#
# Revision: 1
# Processed by: cddbd v1.5.2PL0 Copyright (c) Steve Scherf et al.
# Submitted via: ExactAudioCopy v1.0b3
#
DISCID=08123a11
DTITLE=PerryRhodan - Silber Edition 24 - Die Para-Sprinter [CD 1)
DYEAR=2010
DGENRE=SciFi
TTITLE0=Kapitel 00-01
TTITLE1=Kapitel 00-02
TTITLE2=Kapitel 01-01
TTITLE3=Kapitel 01-02
TTITLE4=Kapitel 01-03
TTITLE5=Kapitel 02-01
TTITLE6=Kapitel 02-02
TTITLE7=Kapitel 02-03
TTITLE8=Kapitel 02-04
TTITLE9=Kapitel 02-05
TTITLE10=Kapitel 02-06
TTITLE11=Kapitel 03-01
TTITLE12=Kapitel 03-02
TTITLE13=Kapitel 03-03
TTITLE14=Kapitel 03-04
TTITLE15=Kapitel 03-05
TTITLE16=Kapitel 04-01
EXTD=
EXTT0=
EXTT1=
EXTT2=
EXTT3=
EXTT4=
EXTT5=
EXTT6=
EXTT7=
EXTT8=
EXTT9=
EXTT10=
EXTT11=
EXTT12=
EXTT13=
EXTT14=
EXTT15=
EXTT16=
PLAYORDER=
